<svg width="180" height="180" viewBox="0 0 180 180" fill="none" xmlns="http://www.w3.org/2000/svg">
  <rect x="16" y="16" width="148" height="148" rx="38" fill="#FFFDF8"/>
  <rect x="16.75" y="16.75" width="146.5" height="146.5" rx="37.25" stroke="#C9A84C" stroke-opacity="0.42" stroke-width="1.5"/>
  <path d="M90 40L124 58V92C124 113.091 110.569 132.107 90 140C69.431 132.107 56 113.091 56 92V58L90 40Z" fill="url(#paint0_linear_1_2)" fill-opacity="0.18"/>
  <path d="M90 54L108 63.5V81.5C108 93.052 100.775 103.455 90 108C79.225 103.455 72 93.052 72 81.5V63.5L90 54Z" stroke="#C9A84C" stroke-width="3"/>
  <path d="M90 54V108" stroke="#C9A84C" stroke-width="3"/>
  <path d="M72 72H108" stroke="#C9A84C" stroke-width="3"/>
  <path d="M64 124H116" stroke="#111827" stroke-opacity="0.16" stroke-width="3" stroke-linecap="round"/>
  <path d="M74 124L90 72L106 124" stroke="#111827" stroke-width="6" stroke-linecap="round" stroke-linejoin="round"/>
  <path d="M123 58L136 51" stroke="#111827" stroke-opacity="0.2" stroke-width="4" stroke-linecap="round"/>
  <path d="M44 129L57 122" stroke="#111827" stroke-opacity="0.2" stroke-width="4" stroke-linecap="round"/>
  <defs>
    <linearGradient id="paint0_linear_1_2" x1="90" y1="40" x2="90" y2="140" gradientUnits="userSpaceOnUse">
      <stop stop-color="#C9A84C"/>
      <stop offset="1" stop-color="#C9A84C" stop-opacity="0"/>
    </linearGradient>
  </defs>
</svg>
